<svg xmlns="http://www.w3.org/2000/svg" viewBox="0 0 1000 1000" xml:space="preserve">
  <path fill="#e0e6ec" d="M873 835.1c8-8 12-17.6 12-29a44 44 0 0 0-11.6-30l-6.9-6.9-3.9-3.8a520 520 0 0 0-169.5-111.8 513.2 513.2 0 0 0-382.3-3.9A516.5 516.5 0 0 0 140.5 757l-7 7c-3 2.5-5.1 4.5-6.1 6a39.8 39.8 0 0 0-12.4 29.4c0 11.3 4 21 12 29.3a39.7 39.7 0 0 0 57.4.7l11.5-11.5A433.6 433.6 0 0 1 501.5 698c55.8.8 109.6 11.7 161.5 32.8a448.7 448.7 0 0 1 143.4 94.8l9.3 9.2a37.6 37.6 0 0 0 28.4 12.4c11.4 0 21-4 29-12zM284.2 168c12.9 10 23.1 23.5 30.9 40.5 7.6 16.9 11.5 35.4 11.5 55.4s-3.9 38.7-11.5 56c-7.8 17.2-18 30.8-31 40.8a67.3 67.3 0 0 1-84.7 0c-12.9-10-23-23.7-30.4-40.9a139 139 0 0 1-11.2-55.9c0-20 3.7-38.5 11.2-55.4a99.9 99.9 0 0 1 30.8-40.5 68 68 0 0 1 42-15c15.4 0 29.5 5 42.4 15zm516.3 0c13 10 23.2 23.5 31 40.5 7.6 16.9 11.4 35.4 11.4 55.4s-3.8 38.7-11.5 56c-7.7 17.2-18 30.8-30.9 40.8a67.1 67.1 0 0 1-84.7 0 104.7 104.7 0 0 1-30.9-40.9 135 135 0 0 1-11.5-55.9c0-20 3.8-38.5 11.5-55.4 7.8-17 18-30.5 31-40.5a67.4 67.4 0 0 1 84.6 0z"/>
</svg>
